<mxfile host="app.diagrams.net" agent="Mozilla/5.0 (X11; Linux x86_64; rv:131.0) Gecko/20100101 Firefox/131.0" version="24.8.6">
  <diagram name="Page-1" id="0783ab3e-0a74-02c8-0abd-f7b4e66b4bec">
    <mxGraphModel dx="910" dy="2594" grid="1" gridSize="10" guides="1" tooltips="1" connect="1" arrows="1" fold="1" page="1" pageScale="1" pageWidth="850" pageHeight="1100" background="none" math="0" shadow="0">
      <root>
        <mxCell id="0" />
        <mxCell id="1" parent="0" />
        <mxCell id="1c1d494c118603dd-1" value="LASERLabSafetyService" style="swimlane;html=1;childLayout=stackLayout;startSize=20;rounded=0;shadow=0;comic=0;labelBackgroundColor=none;strokeWidth=1;fontFamily=Verdana;fontSize=12;align=center;" parent="1" vertex="1">
          <mxGeometry x="160" y="-40" width="800" height="1760" as="geometry" />
        </mxCell>
        <mxCell id="1c1d494c118603dd-3" value="User" style="swimlane;html=1;startSize=20;" parent="1c1d494c118603dd-1" vertex="1">
          <mxGeometry y="20" width="310" height="1740" as="geometry">
            <mxRectangle x="250" y="20" width="40" height="970" as="alternateBounds" />
          </mxGeometry>
        </mxCell>
        <mxCell id="aAY3y8SwZC1HdCenGM2t-53" style="edgeStyle=orthogonalEdgeStyle;rounded=0;orthogonalLoop=1;jettySize=auto;html=1;entryX=0.5;entryY=0;entryDx=0;entryDy=0;" edge="1" parent="1c1d494c118603dd-3" source="aAY3y8SwZC1HdCenGM2t-51" target="aAY3y8SwZC1HdCenGM2t-52">
          <mxGeometry relative="1" as="geometry" />
        </mxCell>
        <mxCell id="aAY3y8SwZC1HdCenGM2t-51" value="Inform user of available commands" style="whiteSpace=wrap;html=1;fontFamily=Verdana;rounded=1;shadow=0;comic=0;labelBackgroundColor=none;strokeWidth=1;arcSize=50;" vertex="1" parent="1c1d494c118603dd-3">
          <mxGeometry x="100" y="560" width="120" height="60" as="geometry" />
        </mxCell>
        <mxCell id="aAY3y8SwZC1HdCenGM2t-52" value="" style="ellipse;html=1;shape=endState;fillColor=strokeColor;" vertex="1" parent="1c1d494c118603dd-3">
          <mxGeometry x="145" y="690" width="30" height="30" as="geometry" />
        </mxCell>
        <mxCell id="aAY3y8SwZC1HdCenGM2t-54" style="edgeStyle=orthogonalEdgeStyle;rounded=0;orthogonalLoop=1;jettySize=auto;html=1;entryX=1;entryY=0.5;entryDx=0;entryDy=0;" edge="1" parent="1c1d494c118603dd-1" source="aAY3y8SwZC1HdCenGM2t-48" target="aAY3y8SwZC1HdCenGM2t-51">
          <mxGeometry relative="1" as="geometry" />
        </mxCell>
        <mxCell id="aAY3y8SwZC1HdCenGM2t-55" value="Help command" style="edgeLabel;html=1;align=center;verticalAlign=middle;resizable=0;points=[];" vertex="1" connectable="0" parent="aAY3y8SwZC1HdCenGM2t-54">
          <mxGeometry x="-0.2742" y="3" relative="1" as="geometry">
            <mxPoint x="-18" y="-3" as="offset" />
          </mxGeometry>
        </mxCell>
        <mxCell id="1c1d494c118603dd-4" value="Bot" style="swimlane;html=1;startSize=20;" parent="1c1d494c118603dd-1" vertex="1">
          <mxGeometry x="310" y="20" width="490" height="1740" as="geometry">
            <mxRectangle x="310" y="20" width="40" height="1740" as="alternateBounds" />
          </mxGeometry>
        </mxCell>
        <mxCell id="RjEq1p0Ai9w8IulhaWm_-5" value="" style="edgeStyle=orthogonalEdgeStyle;rounded=0;orthogonalLoop=1;jettySize=auto;html=1;" parent="1c1d494c118603dd-4" source="60571a20871a0731-8" target="RjEq1p0Ai9w8IulhaWm_-4" edge="1">
          <mxGeometry relative="1" as="geometry" />
        </mxCell>
        <mxCell id="RjEq1p0Ai9w8IulhaWm_-14" value="" style="edgeStyle=orthogonalEdgeStyle;rounded=0;orthogonalLoop=1;jettySize=auto;html=1;" parent="1c1d494c118603dd-4" edge="1">
          <mxGeometry relative="1" as="geometry">
            <mxPoint x="159.76999999999978" y="289.9999999999998" as="sourcePoint" />
            <mxPoint x="159.76999999999978" y="320" as="targetPoint" />
          </mxGeometry>
        </mxCell>
        <mxCell id="aAY3y8SwZC1HdCenGM2t-66" value="Specified command found" style="edgeLabel;html=1;align=center;verticalAlign=middle;resizable=0;points=[];" vertex="1" connectable="0" parent="RjEq1p0Ai9w8IulhaWm_-14">
          <mxGeometry x="0.4909" relative="1" as="geometry">
            <mxPoint y="-12" as="offset" />
          </mxGeometry>
        </mxCell>
        <mxCell id="aAY3y8SwZC1HdCenGM2t-44" style="edgeStyle=orthogonalEdgeStyle;rounded=0;orthogonalLoop=1;jettySize=auto;html=1;exitX=0;exitY=0.5;exitDx=0;exitDy=0;entryX=1;entryY=0.5;entryDx=0;entryDy=0;" edge="1" parent="1c1d494c118603dd-4" source="RjEq1p0Ai9w8IulhaWm_-15" target="RjEq1p0Ai9w8IulhaWm_-18">
          <mxGeometry relative="1" as="geometry" />
        </mxCell>
        <mxCell id="aAY3y8SwZC1HdCenGM2t-64" value="Insufficient arguments" style="edgeLabel;html=1;align=center;verticalAlign=middle;resizable=0;points=[];" vertex="1" connectable="0" parent="aAY3y8SwZC1HdCenGM2t-44">
          <mxGeometry x="-0.1902" y="3" relative="1" as="geometry">
            <mxPoint as="offset" />
          </mxGeometry>
        </mxCell>
        <mxCell id="aAY3y8SwZC1HdCenGM2t-45" style="edgeStyle=orthogonalEdgeStyle;rounded=0;orthogonalLoop=1;jettySize=auto;html=1;exitX=0.5;exitY=1;exitDx=0;exitDy=0;entryX=0.5;entryY=0;entryDx=0;entryDy=0;" edge="1" parent="1c1d494c118603dd-4" source="aAY3y8SwZC1HdCenGM2t-48" target="RjEq1p0Ai9w8IulhaWm_-22">
          <mxGeometry relative="1" as="geometry" />
        </mxCell>
        <mxCell id="aAY3y8SwZC1HdCenGM2t-50" value="Lab entry command" style="edgeLabel;html=1;align=center;verticalAlign=middle;resizable=0;points=[];" vertex="1" connectable="0" parent="aAY3y8SwZC1HdCenGM2t-45">
          <mxGeometry x="-0.0029" y="2" relative="1" as="geometry">
            <mxPoint as="offset" />
          </mxGeometry>
        </mxCell>
        <mxCell id="RjEq1p0Ai9w8IulhaWm_-15" value="Check arguments" style="rhombus;whiteSpace=wrap;html=1;fontFamily=Verdana;rounded=0;shadow=0;comic=0;labelBackgroundColor=none;strokeWidth=1;arcSize=50;" parent="1c1d494c118603dd-4" vertex="1">
          <mxGeometry x="115" y="400" width="90" height="90" as="geometry" />
        </mxCell>
        <mxCell id="0yS8nbTUuQWhnjBg_Cx_-28" style="edgeStyle=orthogonalEdgeStyle;rounded=0;orthogonalLoop=1;jettySize=auto;html=1;exitX=0.75;exitY=1;exitDx=0;exitDy=0;entryX=1;entryY=0.5;entryDx=0;entryDy=0;" parent="1c1d494c118603dd-4" target="aAY3y8SwZC1HdCenGM2t-84" edge="1">
          <mxGeometry relative="1" as="geometry">
            <mxPoint x="200" y="60" as="targetPoint" />
            <Array as="points">
              <mxPoint x="311" y="1000" />
              <mxPoint x="311" y="950" />
              <mxPoint x="460" y="950" />
              <mxPoint x="460" y="60" />
            </Array>
            <mxPoint x="326.385" y="1000" as="sourcePoint" />
          </mxGeometry>
        </mxCell>
        <mxCell id="RjEq1p0Ai9w8IulhaWm_-21" style="edgeStyle=orthogonalEdgeStyle;rounded=0;orthogonalLoop=1;jettySize=auto;html=1;entryX=0.5;entryY=0;entryDx=0;entryDy=0;" parent="1c1d494c118603dd-4" source="RjEq1p0Ai9w8IulhaWm_-18" target="RjEq1p0Ai9w8IulhaWm_-19" edge="1">
          <mxGeometry relative="1" as="geometry" />
        </mxCell>
        <mxCell id="RjEq1p0Ai9w8IulhaWm_-34" value="" style="edgeStyle=orthogonalEdgeStyle;rounded=0;orthogonalLoop=1;jettySize=auto;html=1;" parent="1c1d494c118603dd-4" source="RjEq1p0Ai9w8IulhaWm_-30" target="RjEq1p0Ai9w8IulhaWm_-33" edge="1">
          <mxGeometry relative="1" as="geometry" />
        </mxCell>
        <mxCell id="0yS8nbTUuQWhnjBg_Cx_-17" style="edgeStyle=orthogonalEdgeStyle;rounded=0;orthogonalLoop=1;jettySize=auto;html=1;exitX=0.5;exitY=1;exitDx=0;exitDy=0;entryX=1;entryY=0.5;entryDx=0;entryDy=0;" parent="1c1d494c118603dd-4" source="0yS8nbTUuQWhnjBg_Cx_-13" target="0yS8nbTUuQWhnjBg_Cx_-18" edge="1">
          <mxGeometry relative="1" as="geometry">
            <mxPoint x="-35" y="1340" as="targetPoint" />
            <Array as="points">
              <mxPoint x="105" y="1530" />
              <mxPoint x="45" y="1530" />
              <mxPoint x="45" y="1480" />
            </Array>
          </mxGeometry>
        </mxCell>
        <mxCell id="0yS8nbTUuQWhnjBg_Cx_-25" value="No response recieved" style="edgeLabel;html=1;align=center;verticalAlign=middle;resizable=0;points=[];" parent="0yS8nbTUuQWhnjBg_Cx_-17" vertex="1" connectable="0">
          <mxGeometry x="-0.8199" y="-2" relative="1" as="geometry">
            <mxPoint x="-107" y="-48" as="offset" />
          </mxGeometry>
        </mxCell>
        <mxCell id="RjEq1p0Ai9w8IulhaWm_-31" value="" style="edgeStyle=orthogonalEdgeStyle;rounded=0;orthogonalLoop=1;jettySize=auto;html=1;" parent="1c1d494c118603dd-4" source="RjEq1p0Ai9w8IulhaWm_-22" target="RjEq1p0Ai9w8IulhaWm_-30" edge="1">
          <mxGeometry relative="1" as="geometry" />
        </mxCell>
        <mxCell id="aAY3y8SwZC1HdCenGM2t-62" value="User ID does not exist" style="edgeLabel;html=1;align=center;verticalAlign=middle;resizable=0;points=[];" vertex="1" connectable="0" parent="RjEq1p0Ai9w8IulhaWm_-31">
          <mxGeometry x="-0.28" y="-2" relative="1" as="geometry">
            <mxPoint as="offset" />
          </mxGeometry>
        </mxCell>
        <mxCell id="RjEq1p0Ai9w8IulhaWm_-27" style="edgeStyle=orthogonalEdgeStyle;rounded=0;orthogonalLoop=1;jettySize=auto;html=1;exitX=0;exitY=0.5;exitDx=0;exitDy=0;entryX=1;entryY=0.5;entryDx=0;entryDy=0;" parent="1c1d494c118603dd-4" source="RjEq1p0Ai9w8IulhaWm_-22" target="RjEq1p0Ai9w8IulhaWm_-25" edge="1">
          <mxGeometry relative="1" as="geometry" />
        </mxCell>
        <mxCell id="aAY3y8SwZC1HdCenGM2t-61" value="User ID already exists" style="edgeLabel;html=1;align=center;verticalAlign=middle;resizable=0;points=[];" vertex="1" connectable="0" parent="RjEq1p0Ai9w8IulhaWm_-27">
          <mxGeometry x="-0.2349" relative="1" as="geometry">
            <mxPoint as="offset" />
          </mxGeometry>
        </mxCell>
        <mxCell id="RjEq1p0Ai9w8IulhaWm_-28" style="edgeStyle=orthogonalEdgeStyle;rounded=0;orthogonalLoop=1;jettySize=auto;html=1;entryX=0.5;entryY=0;entryDx=0;entryDy=0;" parent="1c1d494c118603dd-4" source="RjEq1p0Ai9w8IulhaWm_-25" target="RjEq1p0Ai9w8IulhaWm_-26" edge="1">
          <mxGeometry relative="1" as="geometry" />
        </mxCell>
        <mxCell id="0yS8nbTUuQWhnjBg_Cx_-32" style="edgeStyle=orthogonalEdgeStyle;rounded=0;orthogonalLoop=1;jettySize=auto;html=1;exitX=0.25;exitY=1;exitDx=0;exitDy=0;entryX=0.5;entryY=0;entryDx=0;entryDy=0;" parent="1c1d494c118603dd-4" source="0yS8nbTUuQWhnjBg_Cx_-1" target="0yS8nbTUuQWhnjBg_Cx_-29" edge="1">
          <mxGeometry relative="1" as="geometry" />
        </mxCell>
        <mxCell id="0yS8nbTUuQWhnjBg_Cx_-2" style="edgeStyle=orthogonalEdgeStyle;rounded=0;orthogonalLoop=1;jettySize=auto;html=1;entryX=0.5;entryY=0;entryDx=0;entryDy=0;" parent="1c1d494c118603dd-4" source="RjEq1p0Ai9w8IulhaWm_-30" target="0yS8nbTUuQWhnjBg_Cx_-1" edge="1">
          <mxGeometry relative="1" as="geometry" />
        </mxCell>
        <mxCell id="0yS8nbTUuQWhnjBg_Cx_-22" value="" style="edgeStyle=orthogonalEdgeStyle;rounded=0;orthogonalLoop=1;jettySize=auto;html=1;" parent="1c1d494c118603dd-4" source="0yS8nbTUuQWhnjBg_Cx_-13" target="0yS8nbTUuQWhnjBg_Cx_-21" edge="1">
          <mxGeometry relative="1" as="geometry" />
        </mxCell>
        <mxCell id="0yS8nbTUuQWhnjBg_Cx_-11" value="" style="edgeStyle=orthogonalEdgeStyle;rounded=0;orthogonalLoop=1;jettySize=auto;html=1;" parent="1c1d494c118603dd-4" source="0yS8nbTUuQWhnjBg_Cx_-8" target="0yS8nbTUuQWhnjBg_Cx_-10" edge="1">
          <mxGeometry relative="1" as="geometry" />
        </mxCell>
        <mxCell id="0yS8nbTUuQWhnjBg_Cx_-12" value="After 30 minutes" style="edgeLabel;html=1;align=center;verticalAlign=middle;resizable=0;points=[];" parent="0yS8nbTUuQWhnjBg_Cx_-11" vertex="1" connectable="0">
          <mxGeometry x="0.0222" relative="1" as="geometry">
            <mxPoint as="offset" />
          </mxGeometry>
        </mxCell>
        <mxCell id="0yS8nbTUuQWhnjBg_Cx_-30" style="edgeStyle=orthogonalEdgeStyle;rounded=0;orthogonalLoop=1;jettySize=auto;html=1;entryX=0.5;entryY=0;entryDx=0;entryDy=0;" parent="1c1d494c118603dd-4" source="0yS8nbTUuQWhnjBg_Cx_-29" target="0yS8nbTUuQWhnjBg_Cx_-8" edge="1">
          <mxGeometry relative="1" as="geometry" />
        </mxCell>
        <mxCell id="0yS8nbTUuQWhnjBg_Cx_-33" value="Exists" style="edgeLabel;html=1;align=center;verticalAlign=middle;resizable=0;points=[];" parent="0yS8nbTUuQWhnjBg_Cx_-30" vertex="1" connectable="0">
          <mxGeometry x="-0.25" y="2" relative="1" as="geometry">
            <mxPoint as="offset" />
          </mxGeometry>
        </mxCell>
        <mxCell id="0yS8nbTUuQWhnjBg_Cx_-35" style="edgeStyle=orthogonalEdgeStyle;rounded=0;orthogonalLoop=1;jettySize=auto;html=1;entryX=0.5;entryY=0;entryDx=0;entryDy=0;" parent="1c1d494c118603dd-4" source="0yS8nbTUuQWhnjBg_Cx_-39" target="0yS8nbTUuQWhnjBg_Cx_-34" edge="1">
          <mxGeometry relative="1" as="geometry" />
        </mxCell>
        <mxCell id="RjEq1p0Ai9w8IulhaWm_-18" value="Alert insufficient arguments" style="whiteSpace=wrap;html=1;fontFamily=Verdana;rounded=1;shadow=0;comic=0;labelBackgroundColor=none;strokeWidth=1;arcSize=50;" parent="1c1d494c118603dd-4" vertex="1">
          <mxGeometry x="-210" y="415" width="120" height="60" as="geometry" />
        </mxCell>
        <mxCell id="RjEq1p0Ai9w8IulhaWm_-19" value="" style="ellipse;html=1;shape=endState;fillColor=strokeColor;" parent="1c1d494c118603dd-4" vertex="1">
          <mxGeometry x="-165" y="520" width="30" height="30" as="geometry" />
        </mxCell>
        <mxCell id="RjEq1p0Ai9w8IulhaWm_-33" value="&lt;font style=&quot;font-size: 9px;&quot;&gt;Inform user of sign in and reminder to check in every 30 minutes&lt;/font&gt;" style="whiteSpace=wrap;html=1;fontFamily=Verdana;rounded=1;shadow=0;comic=0;labelBackgroundColor=none;strokeWidth=1;arcSize=50;" parent="1c1d494c118603dd-4" vertex="1">
          <mxGeometry x="-210" y="890" width="120" height="60" as="geometry" />
        </mxCell>
        <mxCell id="0yS8nbTUuQWhnjBg_Cx_-18" value="&lt;font style=&quot;font-size: 10px;&quot;&gt;Inform user of no response and following alert being sent&lt;/font&gt;" style="whiteSpace=wrap;html=1;fontFamily=Verdana;rounded=1;shadow=0;comic=0;labelBackgroundColor=none;strokeWidth=1;arcSize=50;" parent="1c1d494c118603dd-4" vertex="1">
          <mxGeometry x="-210" y="1450" width="120" height="60" as="geometry" />
        </mxCell>
        <mxCell id="RjEq1p0Ai9w8IulhaWm_-26" value="" style="ellipse;html=1;shape=endState;fillColor=strokeColor;" parent="1c1d494c118603dd-4" vertex="1">
          <mxGeometry x="-165" y="845" width="30" height="30" as="geometry" />
        </mxCell>
        <mxCell id="RjEq1p0Ai9w8IulhaWm_-25" value="Alert already signed in" style="whiteSpace=wrap;html=1;fontFamily=Verdana;rounded=1;shadow=0;comic=0;labelBackgroundColor=none;strokeWidth=1;arcSize=50;" parent="1c1d494c118603dd-4" vertex="1">
          <mxGeometry x="-210" y="745" width="120" height="60" as="geometry" />
        </mxCell>
        <mxCell id="RjEq1p0Ai9w8IulhaWm_-22" value="&lt;font style=&quot;font-size: 8px;&quot;&gt;Check if user already exists in dictonary&lt;/font&gt;" style="rhombus;whiteSpace=wrap;html=1;fontFamily=Verdana;rounded=0;shadow=0;comic=0;labelBackgroundColor=none;strokeWidth=1;arcSize=50;" parent="1c1d494c118603dd-4" vertex="1">
          <mxGeometry x="105" y="720" width="110" height="110" as="geometry" />
        </mxCell>
        <mxCell id="RjEq1p0Ai9w8IulhaWm_-30" value="Register user" style="whiteSpace=wrap;html=1;fontFamily=Verdana;rounded=1;shadow=0;comic=0;labelBackgroundColor=none;strokeWidth=1;arcSize=50;" parent="1c1d494c118603dd-4" vertex="1">
          <mxGeometry x="100" y="890" width="120" height="60" as="geometry" />
        </mxCell>
        <mxCell id="0yS8nbTUuQWhnjBg_Cx_-1" value="" style="whiteSpace=wrap;html=1;rounded=0;shadow=0;comic=0;labelBackgroundColor=none;strokeWidth=1;fillColor=#000000;fontFamily=Verdana;fontSize=12;align=center;rotation=0;" parent="1c1d494c118603dd-4" vertex="1">
          <mxGeometry x="110" y="990" width="248.5" height="10" as="geometry" />
        </mxCell>
        <mxCell id="aAY3y8SwZC1HdCenGM2t-77" style="edgeStyle=orthogonalEdgeStyle;rounded=0;orthogonalLoop=1;jettySize=auto;html=1;entryX=0.5;entryY=0;entryDx=0;entryDy=0;" edge="1" parent="1c1d494c118603dd-4" source="0yS8nbTUuQWhnjBg_Cx_-8" target="aAY3y8SwZC1HdCenGM2t-75">
          <mxGeometry relative="1" as="geometry" />
        </mxCell>
        <mxCell id="0yS8nbTUuQWhnjBg_Cx_-8" value="&lt;font style=&quot;font-size: 11px;&quot;&gt;Check-in Timer (30 minutes)&lt;/font&gt;" style="whiteSpace=wrap;html=1;fontFamily=Verdana;rounded=1;shadow=0;comic=0;labelBackgroundColor=none;strokeWidth=1;arcSize=50;" parent="1c1d494c118603dd-4" vertex="1">
          <mxGeometry x="45" y="1200" width="120" height="60" as="geometry" />
        </mxCell>
        <mxCell id="0yS8nbTUuQWhnjBg_Cx_-10" value="&lt;font style=&quot;font-size: 11px;&quot;&gt;Check-in message&lt;/font&gt;" style="whiteSpace=wrap;html=1;fontFamily=Verdana;rounded=1;shadow=0;comic=0;labelBackgroundColor=none;strokeWidth=1;arcSize=50;" parent="1c1d494c118603dd-4" vertex="1">
          <mxGeometry x="-210" y="1200" width="120" height="60" as="geometry" />
        </mxCell>
        <mxCell id="aAY3y8SwZC1HdCenGM2t-67" style="edgeStyle=orthogonalEdgeStyle;rounded=0;orthogonalLoop=1;jettySize=auto;html=1;entryX=1;entryY=0.5;entryDx=0;entryDy=0;exitX=1;exitY=0.5;exitDx=0;exitDy=0;" edge="1" parent="1c1d494c118603dd-4" source="0yS8nbTUuQWhnjBg_Cx_-13" target="0yS8nbTUuQWhnjBg_Cx_-29">
          <mxGeometry relative="1" as="geometry">
            <Array as="points">
              <mxPoint x="260" y="1480" />
              <mxPoint x="260" y="1100" />
            </Array>
          </mxGeometry>
        </mxCell>
        <mxCell id="aAY3y8SwZC1HdCenGM2t-68" value="Response recieved" style="edgeLabel;html=1;align=center;verticalAlign=middle;resizable=0;points=[];" vertex="1" connectable="0" parent="aAY3y8SwZC1HdCenGM2t-67">
          <mxGeometry x="-0.5125" y="2" relative="1" as="geometry">
            <mxPoint as="offset" />
          </mxGeometry>
        </mxCell>
        <mxCell id="0yS8nbTUuQWhnjBg_Cx_-13" value="User response" style="rhombus;whiteSpace=wrap;html=1;fontFamily=Verdana;rounded=0;shadow=0;comic=0;labelBackgroundColor=none;strokeWidth=1;arcSize=50;" parent="1c1d494c118603dd-4" vertex="1">
          <mxGeometry x="65" y="1440" width="80" height="80" as="geometry" />
        </mxCell>
        <mxCell id="aAY3y8SwZC1HdCenGM2t-71" style="edgeStyle=orthogonalEdgeStyle;rounded=0;orthogonalLoop=1;jettySize=auto;html=1;entryX=1;entryY=0.5;entryDx=0;entryDy=0;" edge="1" parent="1c1d494c118603dd-4" source="0yS8nbTUuQWhnjBg_Cx_-21" target="0yS8nbTUuQWhnjBg_Cx_-29">
          <mxGeometry relative="1" as="geometry">
            <Array as="points">
              <mxPoint x="105" y="1650" />
              <mxPoint x="260" y="1650" />
              <mxPoint x="260" y="1100" />
            </Array>
          </mxGeometry>
        </mxCell>
        <mxCell id="0yS8nbTUuQWhnjBg_Cx_-21" value="Send alert that a check-up is required" style="whiteSpace=wrap;html=1;fontFamily=Verdana;rounded=1;shadow=0;comic=0;labelBackgroundColor=none;strokeWidth=1;arcSize=50;" parent="1c1d494c118603dd-4" vertex="1">
          <mxGeometry x="45" y="1550" width="120" height="60" as="geometry" />
        </mxCell>
        <mxCell id="0yS8nbTUuQWhnjBg_Cx_-29" value="&lt;font style=&quot;font-size: 9px;&quot;&gt;While user exists in dictionary&lt;/font&gt;" style="rhombus;whiteSpace=wrap;html=1;fontFamily=Verdana;rounded=0;shadow=0;comic=0;labelBackgroundColor=none;strokeWidth=1;arcSize=50;" parent="1c1d494c118603dd-4" vertex="1">
          <mxGeometry x="45" y="1040" width="120" height="120" as="geometry" />
        </mxCell>
        <mxCell id="0yS8nbTUuQWhnjBg_Cx_-34" value="" style="ellipse;html=1;shape=endState;fillColor=strokeColor;" parent="1c1d494c118603dd-4" vertex="1">
          <mxGeometry x="335" y="1690" width="30" height="30" as="geometry" />
        </mxCell>
        <mxCell id="RjEq1p0Ai9w8IulhaWm_-1" value="&lt;font style=&quot;font-size: 12px;&quot;&gt;User command&lt;/font&gt;" style="rounded=1;whiteSpace=wrap;html=1;shadow=0;comic=0;labelBackgroundColor=none;strokeWidth=1;fontFamily=Verdana;fontSize=12;align=center;arcSize=50;" parent="1c1d494c118603dd-4" vertex="1">
          <mxGeometry x="-221.25" y="32.5" width="142.5" height="55" as="geometry" />
        </mxCell>
        <mxCell id="RjEq1p0Ai9w8IulhaWm_-2" style="edgeStyle=orthogonalEdgeStyle;rounded=0;orthogonalLoop=1;jettySize=auto;html=1;entryX=0;entryY=0.5;entryDx=0;entryDy=0;" parent="1c1d494c118603dd-4" source="RjEq1p0Ai9w8IulhaWm_-1" target="aAY3y8SwZC1HdCenGM2t-84" edge="1">
          <mxGeometry relative="1" as="geometry">
            <mxPoint x="140" y="60" as="targetPoint" />
          </mxGeometry>
        </mxCell>
        <mxCell id="60571a20871a0731-8" value="Receive command" style="rounded=1;whiteSpace=wrap;html=1;shadow=0;comic=0;labelBackgroundColor=none;strokeWidth=1;fontFamily=Verdana;fontSize=12;align=center;arcSize=50;" parent="1c1d494c118603dd-4" vertex="1">
          <mxGeometry x="110" y="110" width="100" height="30" as="geometry" />
        </mxCell>
        <mxCell id="RjEq1p0Ai9w8IulhaWm_-4" value="Check command exists" style="rhombus;whiteSpace=wrap;html=1;fontFamily=Verdana;rounded=0;shadow=0;comic=0;labelBackgroundColor=none;strokeWidth=1;arcSize=50;" parent="1c1d494c118603dd-4" vertex="1">
          <mxGeometry x="110" y="190" width="100" height="100" as="geometry" />
        </mxCell>
        <mxCell id="RjEq1p0Ai9w8IulhaWm_-8" value="Alert command not found" style="whiteSpace=wrap;html=1;fontFamily=Verdana;rounded=1;shadow=0;comic=0;labelBackgroundColor=none;strokeWidth=1;arcSize=50;" parent="1c1d494c118603dd-4" vertex="1">
          <mxGeometry x="-210" y="210" width="120" height="60" as="geometry" />
        </mxCell>
        <mxCell id="RjEq1p0Ai9w8IulhaWm_-9" value="" style="edgeStyle=orthogonalEdgeStyle;rounded=0;orthogonalLoop=1;jettySize=auto;html=1;" parent="1c1d494c118603dd-4" source="RjEq1p0Ai9w8IulhaWm_-4" target="RjEq1p0Ai9w8IulhaWm_-8" edge="1">
          <mxGeometry relative="1" as="geometry" />
        </mxCell>
        <mxCell id="aAY3y8SwZC1HdCenGM2t-65" value="Specified command not found" style="edgeLabel;html=1;align=center;verticalAlign=middle;resizable=0;points=[];" vertex="1" connectable="0" parent="RjEq1p0Ai9w8IulhaWm_-9">
          <mxGeometry x="-0.0467" y="-2" relative="1" as="geometry">
            <mxPoint as="offset" />
          </mxGeometry>
        </mxCell>
        <mxCell id="RjEq1p0Ai9w8IulhaWm_-10" value="" style="ellipse;html=1;shape=endState;fillColor=strokeColor;" parent="1c1d494c118603dd-4" vertex="1">
          <mxGeometry x="-165" y="310" width="30" height="30" as="geometry" />
        </mxCell>
        <mxCell id="RjEq1p0Ai9w8IulhaWm_-11" style="edgeStyle=orthogonalEdgeStyle;rounded=0;orthogonalLoop=1;jettySize=auto;html=1;entryX=0.5;entryY=0;entryDx=0;entryDy=0;" parent="1c1d494c118603dd-4" source="RjEq1p0Ai9w8IulhaWm_-8" target="RjEq1p0Ai9w8IulhaWm_-10" edge="1">
          <mxGeometry relative="1" as="geometry" />
        </mxCell>
        <mxCell id="aAY3y8SwZC1HdCenGM2t-47" style="edgeStyle=orthogonalEdgeStyle;rounded=0;orthogonalLoop=1;jettySize=auto;html=1;entryX=0.5;entryY=0;entryDx=0;entryDy=0;" edge="1" parent="1c1d494c118603dd-4" source="RjEq1p0Ai9w8IulhaWm_-13" target="RjEq1p0Ai9w8IulhaWm_-15">
          <mxGeometry relative="1" as="geometry" />
        </mxCell>
        <mxCell id="RjEq1p0Ai9w8IulhaWm_-13" value="Load command from modules" style="whiteSpace=wrap;html=1;fontFamily=Verdana;rounded=1;shadow=0;comic=0;labelBackgroundColor=none;strokeWidth=1;arcSize=50;" parent="1c1d494c118603dd-4" vertex="1">
          <mxGeometry x="100" y="320" width="120" height="60" as="geometry" />
        </mxCell>
        <mxCell id="aAY3y8SwZC1HdCenGM2t-58" style="edgeStyle=orthogonalEdgeStyle;rounded=0;orthogonalLoop=1;jettySize=auto;html=1;entryX=0;entryY=0.5;entryDx=0;entryDy=0;" edge="1" parent="1c1d494c118603dd-4" source="aAY3y8SwZC1HdCenGM2t-48" target="aAY3y8SwZC1HdCenGM2t-56">
          <mxGeometry relative="1" as="geometry" />
        </mxCell>
        <mxCell id="aAY3y8SwZC1HdCenGM2t-60" value="Lab exit command" style="edgeLabel;html=1;align=center;verticalAlign=middle;resizable=0;points=[];" vertex="1" connectable="0" parent="aAY3y8SwZC1HdCenGM2t-58">
          <mxGeometry x="-0.1667" y="1" relative="1" as="geometry">
            <mxPoint x="10" y="1" as="offset" />
          </mxGeometry>
        </mxCell>
        <mxCell id="aAY3y8SwZC1HdCenGM2t-48" value="" style="ellipse;fillColor=strokeColor;html=1;" vertex="1" parent="1c1d494c118603dd-4">
          <mxGeometry x="150" y="580" width="20" height="20" as="geometry" />
        </mxCell>
        <mxCell id="aAY3y8SwZC1HdCenGM2t-49" value="" style="edgeStyle=orthogonalEdgeStyle;rounded=0;orthogonalLoop=1;jettySize=auto;html=1;exitX=0.5;exitY=1;exitDx=0;exitDy=0;entryX=0.5;entryY=0;entryDx=0;entryDy=0;" edge="1" parent="1c1d494c118603dd-4" source="RjEq1p0Ai9w8IulhaWm_-15" target="aAY3y8SwZC1HdCenGM2t-48">
          <mxGeometry relative="1" as="geometry">
            <mxPoint x="640" y="450" as="sourcePoint" />
            <mxPoint x="640" y="625" as="targetPoint" />
          </mxGeometry>
        </mxCell>
        <mxCell id="aAY3y8SwZC1HdCenGM2t-63" value="Sufficient arguments" style="edgeLabel;html=1;align=center;verticalAlign=middle;resizable=0;points=[];" vertex="1" connectable="0" parent="aAY3y8SwZC1HdCenGM2t-49">
          <mxGeometry x="-0.4909" y="1" relative="1" as="geometry">
            <mxPoint as="offset" />
          </mxGeometry>
        </mxCell>
        <mxCell id="aAY3y8SwZC1HdCenGM2t-56" value="Set user ID to false in dictionary" style="whiteSpace=wrap;html=1;fontFamily=Verdana;rounded=1;shadow=0;comic=0;labelBackgroundColor=none;strokeWidth=1;arcSize=50;" vertex="1" parent="1c1d494c118603dd-4">
          <mxGeometry x="290" y="560" width="120" height="60" as="geometry" />
        </mxCell>
        <mxCell id="aAY3y8SwZC1HdCenGM2t-69" value="" style="edgeStyle=orthogonalEdgeStyle;rounded=0;orthogonalLoop=1;jettySize=auto;html=1;entryX=0.5;entryY=0;entryDx=0;entryDy=0;" edge="1" parent="1c1d494c118603dd-4" source="0yS8nbTUuQWhnjBg_Cx_-29" target="0yS8nbTUuQWhnjBg_Cx_-39">
          <mxGeometry relative="1" as="geometry">
            <mxPoint x="645" y="1080" as="sourcePoint" />
            <mxPoint x="730" y="1570" as="targetPoint" />
          </mxGeometry>
        </mxCell>
        <mxCell id="aAY3y8SwZC1HdCenGM2t-70" value="Does not exist" style="edgeLabel;html=1;align=center;verticalAlign=middle;resizable=0;points=[];" vertex="1" connectable="0" parent="aAY3y8SwZC1HdCenGM2t-69">
          <mxGeometry x="-0.3407" y="1" relative="1" as="geometry">
            <mxPoint x="-1" y="135" as="offset" />
          </mxGeometry>
        </mxCell>
        <mxCell id="0yS8nbTUuQWhnjBg_Cx_-39" value="Remove user from dictionary" style="whiteSpace=wrap;html=1;fontFamily=Verdana;rounded=1;shadow=0;comic=0;labelBackgroundColor=none;strokeWidth=1;arcSize=50;" parent="1c1d494c118603dd-4" vertex="1">
          <mxGeometry x="290" y="1560" width="120" height="60" as="geometry" />
        </mxCell>
        <mxCell id="aAY3y8SwZC1HdCenGM2t-78" style="edgeStyle=orthogonalEdgeStyle;rounded=0;orthogonalLoop=1;jettySize=auto;html=1;exitX=0.5;exitY=1;exitDx=0;exitDy=0;entryX=0.5;entryY=0;entryDx=0;entryDy=0;" edge="1" parent="1c1d494c118603dd-4" source="aAY3y8SwZC1HdCenGM2t-75" target="0yS8nbTUuQWhnjBg_Cx_-13">
          <mxGeometry relative="1" as="geometry" />
        </mxCell>
        <mxCell id="aAY3y8SwZC1HdCenGM2t-79" value="Exists" style="edgeLabel;html=1;align=center;verticalAlign=middle;resizable=0;points=[];" vertex="1" connectable="0" parent="aAY3y8SwZC1HdCenGM2t-78">
          <mxGeometry x="-0.3333" relative="1" as="geometry">
            <mxPoint as="offset" />
          </mxGeometry>
        </mxCell>
        <mxCell id="aAY3y8SwZC1HdCenGM2t-82" style="edgeStyle=orthogonalEdgeStyle;rounded=0;orthogonalLoop=1;jettySize=auto;html=1;exitX=1;exitY=0.5;exitDx=0;exitDy=0;entryX=0.5;entryY=0;entryDx=0;entryDy=0;" edge="1" parent="1c1d494c118603dd-4" source="aAY3y8SwZC1HdCenGM2t-75" target="0yS8nbTUuQWhnjBg_Cx_-39">
          <mxGeometry relative="1" as="geometry">
            <Array as="points">
              <mxPoint x="220" y="1355" />
              <mxPoint x="220" y="1100" />
              <mxPoint x="350" y="1100" />
            </Array>
          </mxGeometry>
        </mxCell>
        <mxCell id="aAY3y8SwZC1HdCenGM2t-83" value="Does not exist" style="edgeLabel;html=1;align=center;verticalAlign=middle;resizable=0;points=[];" vertex="1" connectable="0" parent="aAY3y8SwZC1HdCenGM2t-82">
          <mxGeometry x="-0.5816" relative="1" as="geometry">
            <mxPoint as="offset" />
          </mxGeometry>
        </mxCell>
        <mxCell id="aAY3y8SwZC1HdCenGM2t-75" value="&lt;font style=&quot;font-size: 8px;&quot;&gt;Check if user already exists in dictonary&lt;/font&gt;" style="rhombus;whiteSpace=wrap;html=1;fontFamily=Verdana;rounded=0;shadow=0;comic=0;labelBackgroundColor=none;strokeWidth=1;arcSize=50;" vertex="1" parent="1c1d494c118603dd-4">
          <mxGeometry x="50" y="1300" width="110" height="110" as="geometry" />
        </mxCell>
        <mxCell id="aAY3y8SwZC1HdCenGM2t-85" style="edgeStyle=orthogonalEdgeStyle;rounded=0;orthogonalLoop=1;jettySize=auto;html=1;entryX=0.5;entryY=0;entryDx=0;entryDy=0;" edge="1" parent="1c1d494c118603dd-4" source="aAY3y8SwZC1HdCenGM2t-84" target="60571a20871a0731-8">
          <mxGeometry relative="1" as="geometry" />
        </mxCell>
        <mxCell id="aAY3y8SwZC1HdCenGM2t-84" value="" style="ellipse;" vertex="1" parent="1c1d494c118603dd-4">
          <mxGeometry x="145" y="45" width="30" height="30" as="geometry" />
        </mxCell>
      </root>
    </mxGraphModel>
  </diagram>
</mxfile>
